<svg xmlns="http://www.w3.org/2000/svg" viewBox="0 0 330 330" width="330" height="330" shape-rendering="crispEdges"><rect width="330" height="330" fill="#ffffff"/><path d="M40 40h10v10h-10zM50 40h10v10h-10zM60 40h10v10h-10zM70 40h10v10h-10zM80 40h10v10h-10zM90 40h10v10h-10zM100 40h10v10h-10zM120 40h10v10h-10zM140 40h10v10h-10zM160 40h10v10h-10zM170 40h10v10h-10zM200 40h10v10h-10zM220 40h10v10h-10zM230 40h10v10h-10zM240 40h10v10h-10zM250 40h10v10h-10zM260 40h10v10h-10zM270 40h10v10h-10zM280 40h10v10h-10zM40 50h10v10h-10zM100 50h10v10h-10zM120 50h10v10h-10zM130 50h10v10h-10zM150 50h10v10h-10zM160 50h10v10h-10zM170 50h10v10h-10zM180 50h10v10h-10zM220 50h10v10h-10zM280 50h10v10h-10zM40 60h10v10h-10zM60 60h10v10h-10zM70 60h10v10h-10zM80 60h10v10h-10zM100 60h10v10h-10zM120 60h10v10h-10zM150 60h10v10h-10zM160 60h10v10h-10zM170 60h10v10h-10zM180 60h10v10h-10zM200 60h10v10h-10zM220 60h10v10h-10zM240 60h10v10h-10zM250 60h10v10h-10zM260 60h10v10h-10zM280 60h10v10h-10zM40 70h10v10h-10zM60 70h10v10h-10zM70 70h10v10h-10zM80 70h10v10h-10zM100 70h10v10h-10zM150 70h10v10h-10zM170 70h10v10h-10zM180 70h10v10h-10zM220 70h10v10h-10zM240 70h10v10h-10zM250 70h10v10h-10zM260 70h10v10h-10zM280 70h10v10h-10zM40 80h10v10h-10zM60 80h10v10h-10zM70 80h10v10h-10zM80 80h10v10h-10zM100 80h10v10h-10zM120 80h10v10h-10zM130 80h10v10h-10zM220 80h10v10h-10zM240 80h10v10h-10zM250 80h10v10h-10zM260 80h10v10h-10zM280 80h10v10h-10zM40 90h10v10h-10zM100 90h10v10h-10zM130 90h10v10h-10zM160 90h10v10h-10zM170 90h10v10h-10zM180 90h10v10h-10zM200 90h10v10h-10zM220 90h10v10h-10zM280 90h10v10h-10zM40 100h10v10h-10zM50 100h10v10h-10zM60 100h10v10h-10zM70 100h10v10h-10zM80 100h10v10h-10zM90 100h10v10h-10zM100 100h10v10h-10zM120 100h10v10h-10zM140 100h10v10h-10zM160 100h10v10h-10zM180 100h10v10h-10zM200 100h10v10h-10zM220 100h10v10h-10zM230 100h10v10h-10zM240 100h10v10h-10zM250 100h10v10h-10zM260 100h10v10h-10zM270 100h10v10h-10zM280 100h10v10h-10zM130 110h10v10h-10zM140 110h10v10h-10zM170 110h10v10h-10zM180 110h10v10h-10zM190 110h10v10h-10zM200 110h10v10h-10zM40 120h10v10h-10zM70 120h10v10h-10zM80 120h10v10h-10zM90 120h10v10h-10zM100 120h10v10h-10zM110 120h10v10h-10zM120 120h10v10h-10zM160 120h10v10h-10zM200 120h10v10h-10zM210 120h10v10h-10zM240 120h10v10h-10zM260 120h10v10h-10zM270 120h10v10h-10zM280 120h10v10h-10zM40 130h10v10h-10zM50 130h10v10h-10zM70 130h10v10h-10zM140 130h10v10h-10zM170 130h10v10h-10zM190 130h10v10h-10zM200 130h10v10h-10zM240 130h10v10h-10zM260 130h10v10h-10zM270 130h10v10h-10zM50 140h10v10h-10zM70 140h10v10h-10zM80 140h10v10h-10zM90 140h10v10h-10zM100 140h10v10h-10zM110 140h10v10h-10zM130 140h10v10h-10zM140 140h10v10h-10zM150 140h10v10h-10zM170 140h10v10h-10zM180 140h10v10h-10zM190 140h10v10h-10zM200 140h10v10h-10zM250 140h10v10h-10zM280 140h10v10h-10zM50 150h10v10h-10zM60 150h10v10h-10zM70 150h10v10h-10zM110 150h10v10h-10zM130 150h10v10h-10zM160 150h10v10h-10zM200 150h10v10h-10zM210 150h10v10h-10zM260 150h10v10h-10zM270 150h10v10h-10zM280 150h10v10h-10zM80 160h10v10h-10zM90 160h10v10h-10zM100 160h10v10h-10zM130 160h10v10h-10zM150 160h10v10h-10zM180 160h10v10h-10zM190 160h10v10h-10zM210 160h10v10h-10zM220 160h10v10h-10zM270 160h10v10h-10zM40 170h10v10h-10zM90 170h10v10h-10zM110 170h10v10h-10zM130 170h10v10h-10zM140 170h10v10h-10zM160 170h10v10h-10zM190 170h10v10h-10zM210 170h10v10h-10zM230 170h10v10h-10zM240 170h10v10h-10zM260 170h10v10h-10zM270 170h10v10h-10zM40 180h10v10h-10zM50 180h10v10h-10zM60 180h10v10h-10zM80 180h10v10h-10zM90 180h10v10h-10zM100 180h10v10h-10zM130 180h10v10h-10zM170 180h10v10h-10zM190 180h10v10h-10zM200 180h10v10h-10zM220 180h10v10h-10zM250 180h10v10h-10zM270 180h10v10h-10zM280 180h10v10h-10zM40 190h10v10h-10zM70 190h10v10h-10zM90 190h10v10h-10zM120 190h10v10h-10zM130 190h10v10h-10zM160 190h10v10h-10zM180 190h10v10h-10zM190 190h10v10h-10zM210 190h10v10h-10zM220 190h10v10h-10zM260 190h10v10h-10zM270 190h10v10h-10zM280 190h10v10h-10zM40 200h10v10h-10zM80 200h10v10h-10zM100 200h10v10h-10zM150 200h10v10h-10zM160 200h10v10h-10zM170 200h10v10h-10zM180 200h10v10h-10zM200 200h10v10h-10zM210 200h10v10h-10zM220 200h10v10h-10zM230 200h10v10h-10zM240 200h10v10h-10zM250 200h10v10h-10zM260 200h10v10h-10zM280 200h10v10h-10zM120 210h10v10h-10zM130 210h10v10h-10zM140 210h10v10h-10zM150 210h10v10h-10zM180 210h10v10h-10zM200 210h10v10h-10zM240 210h10v10h-10zM250 210h10v10h-10zM270 210h10v10h-10zM40 220h10v10h-10zM50 220h10v10h-10zM60 220h10v10h-10zM70 220h10v10h-10zM80 220h10v10h-10zM90 220h10v10h-10zM100 220h10v10h-10zM120 220h10v10h-10zM160 220h10v10h-10zM170 220h10v10h-10zM180 220h10v10h-10zM200 220h10v10h-10zM220 220h10v10h-10zM240 220h10v10h-10zM280 220h10v10h-10zM40 230h10v10h-10zM100 230h10v10h-10zM120 230h10v10h-10zM150 230h10v10h-10zM170 230h10v10h-10zM180 230h10v10h-10zM200 230h10v10h-10zM240 230h10v10h-10zM280 230h10v10h-10zM40 240h10v10h-10zM60 240h10v10h-10zM70 240h10v10h-10zM80 240h10v10h-10zM100 240h10v10h-10zM120 240h10v10h-10zM150 240h10v10h-10zM160 240h10v10h-10zM190 240h10v10h-10zM200 240h10v10h-10zM210 240h10v10h-10zM220 240h10v10h-10zM230 240h10v10h-10zM240 240h10v10h-10zM250 240h10v10h-10zM40 250h10v10h-10zM60 250h10v10h-10zM70 250h10v10h-10zM80 250h10v10h-10zM100 250h10v10h-10zM120 250h10v10h-10zM160 250h10v10h-10zM170 250h10v10h-10zM200 250h10v10h-10zM220 250h10v10h-10zM230 250h10v10h-10zM250 250h10v10h-10zM270 250h10v10h-10zM280 250h10v10h-10zM40 260h10v10h-10zM60 260h10v10h-10zM70 260h10v10h-10zM80 260h10v10h-10zM100 260h10v10h-10zM130 260h10v10h-10zM140 260h10v10h-10zM150 260h10v10h-10zM180 260h10v10h-10zM190 260h10v10h-10zM200 260h10v10h-10zM240 260h10v10h-10zM260 260h10v10h-10zM270 260h10v10h-10zM280 260h10v10h-10zM40 270h10v10h-10zM100 270h10v10h-10zM140 270h10v10h-10zM150 270h10v10h-10zM160 270h10v10h-10zM190 270h10v10h-10zM220 270h10v10h-10zM230 270h10v10h-10zM260 270h10v10h-10zM270 270h10v10h-10zM280 270h10v10h-10zM40 280h10v10h-10zM50 280h10v10h-10zM60 280h10v10h-10zM70 280h10v10h-10zM80 280h10v10h-10zM90 280h10v10h-10zM100 280h10v10h-10zM120 280h10v10h-10zM150 280h10v10h-10zM180 280h10v10h-10zM190 280h10v10h-10zM200 280h10v10h-10zM210 280h10v10h-10zM230 280h10v10h-10zM240 280h10v10h-10zM280 280h10v10h-10z" fill="#000000"/></svg>